<svg width="83" height="19" viewBox="0 0 83 19" fill="none" xmlns="http://www.w3.org/2000/svg">
<path d="M12.2727 6.33523V9.40341H5.82386V6.33523H12.2727ZM0.909091 10.0852H4.80114C4.7822 10.7955 4.98343 11.3187 5.40483 11.6548C5.83097 11.991 6.41572 12.1591 7.15909 12.1591C7.85038 12.1591 8.37595 12.0241 8.7358 11.7543C9.10038 11.4796 9.34896 11.0511 9.48153 10.4688C9.61884 9.88163 9.6875 9.11932 9.6875 8.18182V7.30114C9.6875 6.38258 9.60938 5.6321 9.45312 5.04972C9.29688 4.46733 9.04119 4.03883 8.68608 3.7642C8.33097 3.48958 7.85038 3.35227 7.24432 3.35227C6.58144 3.35227 6.07244 3.43987 5.71733 3.61506C5.36222 3.79025 5.11837 4.04119 4.9858 4.3679C4.85322 4.6946 4.7822 5.08523 4.77273 5.53977H0.880682C0.975379 4.56439 1.26657 3.67661 1.75426 2.87642C2.24195 2.07623 2.94034 1.43939 3.84943 0.965909C4.75852 0.492424 5.89015 0.255681 7.24432 0.255681C8.51326 0.255681 9.61648 0.54214 10.554 1.11506C11.4962 1.68324 12.2254 2.49763 12.7415 3.55824C13.2623 4.61411 13.5227 5.87121 13.5227 7.32955V8.18182C13.5227 9.64015 13.2718 10.8949 12.7699 11.946C12.268 12.9924 11.5436 13.7973 10.5966 14.3608C9.64962 14.9195 8.50379 15.1989 7.15909 15.1989C5.9375 15.1989 4.86506 14.9905 3.94176 14.5739C3.0232 14.1525 2.29877 13.5606 1.76847 12.7983C1.2429 12.0312 0.956439 11.1269 0.909091 10.0852ZM15.3888 15V4.09091H19.3093V7.98295H19.9911L22.3207 4.09091H26.8093L23.315 9.60227L26.8377 15H22.2923L20.19 11.6193H19.3093V15H15.3888ZM32.5586 15.1989C31.3749 15.1989 30.3616 14.9645 29.5188 14.4957C28.676 14.0223 28.0297 13.3641 27.5799 12.5213C27.1301 11.6738 26.9052 10.6913 26.9052 9.57386C26.9052 8.45644 27.1301 7.47633 27.5799 6.63352C28.0297 5.78598 28.676 5.12784 29.5188 4.65909C30.3616 4.18561 31.3749 3.94886 32.5586 3.94886C33.7423 3.94886 34.7556 4.18561 35.5984 4.65909C36.4412 5.12784 37.0875 5.78598 37.5373 6.63352C37.9871 7.47633 38.212 8.45644 38.212 9.57386C38.212 10.6913 37.9871 11.6738 37.5373 12.5213C37.0875 13.3641 36.4412 14.0223 35.5984 14.4957C34.7556 14.9645 33.7423 15.1989 32.5586 15.1989ZM32.587 12.3011C32.9184 12.3011 33.2049 12.1899 33.4464 11.9673C33.6879 11.7448 33.8749 11.4276 34.0075 11.0156C34.14 10.6037 34.2063 10.1136 34.2063 9.54545C34.2063 8.97254 34.14 8.48248 34.0075 8.07528C33.8749 7.66335 33.6879 7.34612 33.4464 7.12358C33.2049 6.90104 32.9184 6.78977 32.587 6.78977C32.2366 6.78977 31.936 6.90104 31.685 7.12358C31.4341 7.34612 31.2423 7.66335 31.1097 8.07528C30.9772 8.48248 30.9109 8.97254 30.9109 9.54545C30.9109 10.1136 30.9772 10.6037 31.1097 11.0156C31.2423 11.4276 31.4341 11.7448 31.685 11.9673C31.936 12.1899 32.2366 12.3011 32.587 12.3011ZM39.2631 18.4943V11.9602H40.2859C40.6268 11.7519 40.9345 11.4583 41.2092 11.0795C41.4885 10.7008 41.7253 10.1586 41.9194 9.45312C42.1183 8.74763 42.265 7.80303 42.3597 6.61932L42.8427 0.454545H53.1268V11.9602H54.6609V18.4943H50.854V15H43.07V18.4943H39.2631ZM44.8029 11.9602H49.32V3.63636H46.3938L46.1665 6.61932C46.1003 7.50947 45.9985 8.28835 45.8612 8.95597C45.7286 9.61884 45.57 10.1965 45.3853 10.6889C45.2054 11.1766 45.0112 11.6004 44.8029 11.9602ZM61.3086 15.1989C60.1249 15.1989 59.1116 14.9645 58.2688 14.4957C57.426 14.0223 56.7797 13.3641 56.3299 12.5213C55.8801 11.6738 55.6552 10.6913 55.6552 9.57386C55.6552 8.45644 55.8801 7.47633 56.3299 6.63352C56.7797 5.78598 57.426 5.12784 58.2688 4.65909C59.1116 4.18561 60.1249 3.94886 61.3086 3.94886C62.4923 3.94886 63.5056 4.18561 64.3484 4.65909C65.1912 5.12784 65.8375 5.78598 66.2873 6.63352C66.7371 7.47633 66.962 8.45644 66.962 9.57386C66.962 10.6913 66.7371 11.6738 66.2873 12.5213C65.8375 13.3641 65.1912 14.0223 64.3484 14.4957C63.5056 14.9645 62.4923 15.1989 61.3086 15.1989ZM61.337 12.3011C61.6684 12.3011 61.9549 12.1899 62.1964 11.9673C62.4379 11.7448 62.6249 11.4276 62.7575 11.0156C62.89 10.6037 62.9563 10.1136 62.9563 9.54545C62.9563 8.97254 62.89 8.48248 62.7575 8.07528C62.6249 7.66335 62.4379 7.34612 62.1964 7.12358C61.9549 6.90104 61.6684 6.78977 61.337 6.78977C60.9866 6.78977 60.686 6.90104 60.435 7.12358C60.1841 7.34612 59.9923 7.66335 59.8597 8.07528C59.7272 8.48248 59.6609 8.97254 59.6609 9.54545C59.6609 10.1136 59.7272 10.6037 59.8597 11.0156C59.9923 11.4276 60.1841 11.7448 60.435 11.9673C60.686 12.1899 60.9866 12.3011 61.337 12.3011ZM75.3143 10.9375L77.7006 4.09091H80.4847L76.5359 15H74.0927L70.2575 4.09091H73.0415L75.3143 10.9375ZM72.2461 4.09091V15H68.5529V4.09091H72.2461ZM78.6381 15V4.09091H82.2745V15H78.6381Z" fill="white"/>
</svg>
